<svg width="45" height="46" viewBox="0 0 45 46" fill="none" xmlns="http://www.w3.org/2000/svg">
<path id="Vector" d="M22.5 0.0539551C34.9313 0.0539551 45 10.3774 45 23.1231C44.9988 27.9566 43.5192 32.6681 40.7695 36.5943C38.0199 40.5206 34.1385 43.4638 29.6719 45.0099C28.5469 45.2406 28.125 44.5197 28.125 43.9141C28.125 43.1355 28.1531 40.6556 28.1531 37.5701C28.1531 35.4074 27.45 34.0232 26.6344 33.3023C31.6406 32.7256 36.9 30.7647 36.9 21.9119C36.9 19.3743 36.0281 17.327 34.5938 15.7121C34.8187 15.1354 35.6063 12.7708 34.3688 9.5988C34.3688 9.5988 32.4844 8.9644 28.1813 11.9634C26.3813 11.4443 24.4688 11.1848 22.5563 11.1848C20.6438 11.1848 18.7313 11.4443 16.9313 11.9634C12.6281 8.99324 10.7438 9.5988 10.7438 9.5988C9.50625 12.7708 10.2938 15.1354 10.5188 15.7121C9.08438 17.327 8.2125 19.4032 8.2125 21.9119C8.2125 30.7359 13.4438 32.7256 18.45 33.3023C17.8031 33.879 17.2125 34.8883 17.0156 36.3878C15.7219 36.9934 12.4875 37.9738 10.4625 34.4846C10.0406 33.7925 8.775 32.0912 7.00313 32.12C5.11875 32.1489 6.24375 33.2158 7.03125 33.6483C7.9875 34.1962 9.08438 36.2436 9.3375 36.9069C9.7875 38.2045 11.25 40.6844 16.9031 39.6175C16.9031 41.5495 16.9313 43.3662 16.9313 43.9141C16.9313 44.5197 16.5094 45.2117 15.3844 45.0099C10.903 43.4805 7.00519 40.5432 4.24375 36.6146C1.48232 32.686 -0.00247635 27.9656 3.10025e-06 23.1231C3.10025e-06 10.3774 10.0688 0.0539551 22.5 0.0539551Z" fill="#615A5A"/>
</svg>
