<svg width="45" height="46" viewBox="0 0 45 46" fill="none" xmlns="http://www.w3.org/2000/svg">
<path id="Vector" d="M41.625 0.0539551H3.375C2.47989 0.0539551 1.62145 0.409535 0.988515 1.04247C0.355579 1.67541 0 2.53385 0 3.42896V41.679C0 42.5741 0.355579 43.4325 0.988515 44.0654C1.62145 44.6984 2.47989 45.054 3.375 45.054H41.625C42.5201 45.054 43.3785 44.6984 44.0115 44.0654C44.6444 43.4325 45 42.5741 45 41.679V3.42896C45 2.53385 44.6444 1.67541 44.0115 1.04247C43.3785 0.409535 42.5201 0.0539551 41.625 0.0539551ZM13.5 38.304H6.75V18.054H13.5V38.304ZM10.125 14.1165C9.35141 14.0943 8.60149 13.8448 7.96894 13.3989C7.33639 12.953 6.84926 12.3306 6.56841 11.6095C6.28757 10.8883 6.22547 10.1004 6.38986 9.34414C6.55426 8.5879 6.93787 7.89687 7.49275 7.35739C8.04764 6.81792 8.7492 6.45393 9.50977 6.3109C10.2703 6.16786 11.0562 6.25213 11.7692 6.55317C12.4821 6.85422 13.0905 7.35868 13.5184 8.00354C13.9463 8.6484 14.1747 9.40505 14.175 10.179C14.1572 11.2372 13.7213 12.2455 12.9624 12.9833C12.2035 13.7211 11.1834 14.1285 10.125 14.1165ZM38.25 38.304H31.5V27.639C31.5 24.444 30.15 23.2965 28.395 23.2965C27.8804 23.3307 27.3777 23.4663 26.9157 23.6954C26.4537 23.9245 26.0415 24.2426 25.7028 24.6315C25.3641 25.0204 25.1056 25.4723 24.9421 25.9614C24.7786 26.4505 24.7133 26.9671 24.75 27.4815C24.7388 27.5862 24.7388 27.6918 24.75 27.7965V38.304H18V18.054H24.525V20.979C25.1832 19.9777 26.0875 19.1622 27.1512 18.6107C28.2149 18.0591 29.4024 17.79 30.6 17.829C34.0875 17.829 38.16 19.764 38.16 26.064L38.25 38.304Z" fill="#615A5A"/>
</svg>
