<svg width="50" height="42" viewBox="0 0 50 42" fill="none" xmlns="http://www.w3.org/2000/svg">
<g id="mail">
<path id="icon" d="M8.33335 34.9638C7.18752 34.9638 6.19794 34.6293 5.3646 33.9602C4.56599 33.262 4.16669 32.4328 4.16669 31.4728V10.5269C4.16669 9.56686 4.56599 8.75229 5.3646 8.08318C6.19794 7.38499 7.18752 7.03589 8.33335 7.03589H41.6667C42.8125 7.03589 43.7847 7.38499 44.5834 8.08318C45.4167 8.75229 45.8334 9.56686 45.8334 10.5269V31.4728C45.8334 32.4328 45.4167 33.262 44.5834 33.9602C43.7847 34.6293 42.8125 34.9638 41.6667 34.9638H8.33335ZM25 22.7453L41.6667 14.0179V10.5269L25 19.2544L8.33335 10.5269V14.0179L25 22.7453Z" fill="#79747E"/>
</g>
</svg>
